<svg width="24" height="16" viewBox="0 0 24 16" fill="none" xmlns="http://www.w3.org/2000/svg">
<path d="M9.04782 13.2193V11.804H8.86706C8.85022 11.7349 8.83188 11.6671 8.81056 11.6002L8.9536 11.5173L8.24608 10.2916L8.08833 10.3826C8.03973 10.3316 7.98985 10.282 7.93805 10.2344L8.02097 10.0912L6.79524 9.38366L6.70486 9.54034C6.63728 9.52072 6.56907 9.50303 6.5 9.48768V9.32227H5.08474V9.50325C5.01567 9.52009 4.94788 9.53842 4.88052 9.55974L4.79802 9.4167L3.57229 10.1242L3.66331 10.282C3.61237 10.3306 3.5627 10.3805 3.51516 10.4327L3.37149 10.3498L2.66397 11.5753L2.82107 11.6661C2.80146 11.7337 2.78377 11.8015 2.76842 11.8709H2.60278V13.2862H2.78376C2.8006 13.3553 2.82022 13.4228 2.84132 13.4898L2.69743 13.5727L3.40495 14.7984L3.56227 14.7076C3.61066 14.7586 3.66118 14.8072 3.7132 14.8547L3.63006 14.9992L4.8558 15.7063L4.94618 15.5499C5.01375 15.5695 5.08197 15.5867 5.15125 15.6021V15.7677H6.56651V15.5872C6.63557 15.5701 6.70315 15.5511 6.7703 15.53L6.85322 15.6731L8.07874 14.9656L7.98793 14.8084C8.03887 14.7598 8.08748 14.7091 8.13523 14.6569L8.27954 14.7402L8.98706 13.5145L8.83059 13.4241C8.85021 13.3565 8.86705 13.2883 8.88197 13.219L9.04782 13.2188L9.04782 13.2193ZM7.56397 12.619C7.52517 13.5458 6.76182 14.2853 5.82537 14.2853C4.88935 14.2853 4.12557 13.5454 4.08715 12.6185C4.08587 12.594 4.08523 12.5697 4.08523 12.545C4.08523 11.5836 4.86413 10.8046 5.82536 10.8046C6.78658 10.8046 7.5657 11.584 7.5657 12.545C7.5657 12.5697 7.56485 12.5947 7.564 12.619L7.56397 12.619Z" fill="#101323"/>
<path d="M23.7893 12.5394H23.9999V10.747H23.7707C23.7496 10.6596 23.7262 10.5735 23.6993 10.4885L23.8805 10.384L22.9839 8.83149L22.7846 8.9466C22.7228 8.88222 22.6599 8.81891 22.5938 8.75901L22.6989 8.57718L21.1464 7.68057L21.0315 7.87924C20.9462 7.85409 20.8597 7.83213 20.7721 7.81252V7.60254H18.9795V7.8317C18.8923 7.85301 18.8062 7.87625 18.7213 7.90311L18.6169 7.72213L17.0644 8.61852L17.1795 8.81805C17.1147 8.87944 17.052 8.94275 16.9919 9.00841L16.8099 8.90331L15.9139 10.4558L16.1121 10.5705C16.087 10.6558 16.0648 10.7425 16.0454 10.8304H15.8354V12.6229H16.0644C16.0857 12.7101 16.1104 12.7956 16.1375 12.8807L15.955 12.9858L16.8516 14.5383L17.0505 14.4234C17.1119 14.4877 17.1761 14.5496 17.2422 14.6097L17.1367 14.7924L18.6887 15.689L18.8034 15.4909C18.8887 15.5157 18.9754 15.5374 19.0633 15.557V15.767H20.8558V15.5381C20.943 15.517 21.0287 15.4929 21.1138 15.466L21.2187 15.6472L22.7712 14.7508L22.6563 14.5519C22.7206 14.4905 22.7829 14.4264 22.8426 14.3603L23.0257 14.466L23.9221 12.9135L23.7238 12.7988C23.749 12.714 23.7705 12.6272 23.7893 12.5394L23.7893 12.5394ZM22.1202 11.7792C22.0709 12.9534 21.104 13.89 19.9179 13.89C18.7316 13.89 17.7647 12.9534 17.7157 11.7792C17.7144 11.7481 17.7133 11.7172 17.7133 11.6854C17.7133 10.468 18.7005 9.48081 19.9179 9.48081C21.1353 9.48081 22.1225 10.4676 22.1225 11.6854C22.1227 11.7172 22.1214 11.7483 22.1202 11.7792H22.1202Z" fill="#101323"/>
<path d="M19.8526 7.17339C20.8773 7.17339 21.8204 7.52022 22.5724 8.1028V7.73465C21.6694 5.89925 19.5721 6.10307 19.5721 6.10307V2.11208L19.8053 1.79147V1.17967H17.5913V0.801079H17.8026V0.567872L17.4387 0H17.1108L16.747 0.567872V0.801079H16.9578V1.17967H11.5902V1.87884L11.9108 2.17003V6.36501H6.96969C6.94837 6.20066 6.80811 6.07382 6.63778 6.07382H3.82691C3.65637 6.07382 3.51632 6.20066 3.495 6.36501H1.83122C-0.353117 6.36501 0.0250093 8.28757 0.0250093 8.28757L0.986399 11.8418C1.33323 12.8829 2.09573 12.6763 2.22065 12.6347C2.21873 12.584 2.21702 12.5335 2.21702 12.4825C2.21702 10.5037 3.82116 8.89937 5.8002 8.89937C7.77924 8.89937 9.38337 10.5037 9.38337 12.4825C9.38337 12.5339 9.38145 12.5847 9.37932 12.635L9.90031 12.6356V13.2107H14.7945V12.6791H15.5334C15.4504 12.3395 15.4063 11.985 15.4063 11.6196C15.4063 9.16369 17.3971 7.17329 19.8527 7.17329L19.8526 7.17339ZM16.2658 2.24317H18.5382V6.34161H15.5521V2.79658C15.5521 2.79658 15.5082 2.24317 16.2658 2.24317ZM14.8528 6.33604H13.0759C13.0759 6.33604 12.5225 6.38337 12.5225 5.62214V2.85497C12.5225 2.85497 12.4641 2.24317 13.2653 2.24317H14.8531L14.8528 6.33604Z" fill="#101323"/>
</svg>
