<svg width="24" height="9" viewBox="0 0 24 9" fill="none" xmlns="http://www.w3.org/2000/svg">
<path fill-rule="evenodd" clip-rule="evenodd" d="M1.3009 0.557406H9.60028C9.63122 0.247771 9.87898 0 10.1886 0H14.6169C14.9265 0 15.1743 0.247764 15.2052 0.557406H22.6684C23.4115 0.557406 24 1.14574 24 1.85797V6.53411C24 7.43221 23.2568 8.17537 22.3587 8.17537H18.8593C19.045 7.89667 19.1689 7.58704 19.1689 7.24631C19.1689 6.37928 18.4567 5.66694 17.5895 5.66694C16.6914 5.66694 16.0102 6.37914 16.0102 7.24631C16.0102 7.58689 16.1031 7.89667 16.2889 8.17537H5.14073C5.32649 7.89667 5.45036 7.58704 5.45036 7.24631C5.45036 6.37928 4.73816 5.66694 3.87099 5.66694C2.97289 5.66694 2.29162 6.37914 2.29162 7.24631C2.29162 7.58689 2.38456 7.89667 2.57031 8.17537H1.33163C0.619428 8.17537 0 7.55598 0 6.81281V1.85794C0 1.14574 0.588331 0.557372 1.30057 0.557372L1.3009 0.557406ZM19.0451 1.23868H21.8632C22.2038 1.23868 22.5135 1.51738 22.5135 1.88904V3.31348C22.5135 3.65405 22.2039 3.96383 21.8632 3.96383H19.0451C18.7046 3.96383 18.4257 3.6542 18.4257 3.31348V1.88904C18.4257 1.51739 18.7044 1.23868 19.0451 1.23868ZM14.4002 1.23868H17.1872C17.5278 1.23868 17.8375 1.51738 17.8375 1.88904V3.31348C17.8375 3.65405 17.5279 3.96383 17.1872 3.96383H14.4002C14.0285 3.96383 13.7498 3.6542 13.7498 3.31348V1.88904C13.7498 1.51739 14.0285 1.23868 14.4002 1.23868ZM9.72405 1.23868H12.511C12.8516 1.23868 13.1614 1.51738 13.1614 1.88904V3.31348C13.1614 3.65405 12.8518 3.96383 12.511 3.96383H9.72405C9.3524 3.96383 9.0737 3.6542 9.0737 3.31348V1.88904C9.0737 1.51739 9.3524 1.23868 9.72405 1.23868ZM5.04792 1.23868H7.83491C8.20656 1.23868 8.48526 1.51738 8.48526 1.88904V3.31348C8.48526 3.65405 8.20656 3.96383 7.83491 3.96383H5.04792C4.67627 3.96383 4.39756 3.6542 4.39756 3.31348V1.88904C4.39756 1.51739 4.67626 1.23868 5.04792 1.23868ZM1.33176 1.20775H3.71618V4.14957H0.898124V1.67221C0.898124 1.42444 1.08388 1.20775 1.33166 1.20775H1.33176Z" fill="#101323"/>
<path fill-rule="evenodd" clip-rule="evenodd" d="M3.90206 5.85266C4.64522 5.85266 5.26462 6.47206 5.26462 7.24618C5.26462 8.0204 4.64522 8.63969 3.90206 8.63969C3.12784 8.63969 2.50854 8.0203 2.50854 7.24618C2.50854 6.47195 3.12794 5.85266 3.90206 5.85266ZM3.90206 6.22431C4.45947 6.22431 4.89297 6.68877 4.89297 7.24618C4.89297 7.80358 4.45943 8.26804 3.90206 8.26804C3.34465 8.26804 2.88019 7.80358 2.88019 7.24618C2.88019 6.68877 3.34465 6.22431 3.90206 6.22431Z" fill="#101323"/>
<path fill-rule="evenodd" clip-rule="evenodd" d="M17.5896 5.85266C18.3327 5.85266 18.9521 6.47206 18.9521 7.24618C18.9521 8.0204 18.3327 8.63969 17.5896 8.63969C16.8153 8.63969 16.196 8.0203 16.196 7.24618C16.196 6.47195 16.8154 5.85266 17.5896 5.85266ZM17.5896 6.22431C18.147 6.22431 18.5805 6.68877 18.5805 7.24618C18.5805 7.80358 18.1469 8.26804 17.5896 8.26804C17.0322 8.26804 16.5677 7.80358 16.5677 7.24618C16.5677 6.68877 17.0322 6.22431 17.5896 6.22431Z" fill="#101323"/>
</svg>
