<svg width="24" height="24" viewBox="0 0 24 24" fill="none" xmlns="http://www.w3.org/2000/svg">
<path d="M23.9894 11.4482C23.7116 5.26153 18.6612 0.236402 12.4745 0.00913541C9.16657 -0.11716 6.06054 1.06971 3.68687 3.3423C1.31314 5.61488 0 8.6957 0 11.9784C0 16.3218 2.37372 20.3368 6.16146 22.458C6.96961 22.9124 7.82813 23.2661 8.68665 23.5186C8.98962 23.5943 9.29274 23.6449 9.62093 23.6449C10.328 23.6449 11.035 23.4176 11.6411 22.963C12.4996 22.3317 12.9795 21.3469 12.9795 20.2864V17.4836C15.2521 17.0291 16.9693 15.0089 16.9693 12.61V11.322C17.55 11.2968 18.0046 10.8422 18.0046 10.2614C18.0046 9.68069 17.5248 9.20086 16.9441 9.20086H15.3532V7.10495C15.3532 6.54941 14.8987 6.06958 14.3178 6.06958C13.7622 6.06958 13.2824 6.52403 13.2824 7.10495V9.20086H10.7068V7.10495C10.7068 6.54941 10.2524 6.06958 9.67148 6.06958C9.11593 6.06958 8.6361 6.52403 8.6361 7.10495V9.20086H7.04519C6.46444 9.20086 5.98461 9.68069 5.98461 10.2614C5.98461 10.8422 6.43905 11.2968 7.01998 11.322V12.6098C7.01998 15.0341 8.73702 17.0289 11.0098 17.4834V20.2864C11.0098 20.7157 10.8077 21.1449 10.4542 21.3975C10.1007 21.6501 9.67148 21.751 9.24219 21.6248C8.50998 21.4227 7.80275 21.1198 7.12108 20.7408C3.93939 18.9733 1.96969 15.6147 1.96969 11.9784C1.96969 9.22603 3.05543 6.65029 5.05042 4.7564C7.02007 2.8373 9.64627 1.85252 12.3987 1.95344C17.5497 2.18084 21.7924 6.3727 22.0197 11.5492C22.2217 16.0945 19.343 20.2106 15.0249 21.5742C14.4945 21.7256 14.2168 22.2812 14.3684 22.8115C14.5199 23.3419 15.0755 23.6197 15.6058 23.4681C20.7572 21.8014 24.2167 16.8773 23.9894 11.4481L23.9894 11.4482Z" fill="#101323"/>
</svg>
