<svg width="24" height="10" viewBox="0 0 24 10" fill="none" xmlns="http://www.w3.org/2000/svg">
<path fill-rule="evenodd" clip-rule="evenodd" d="M16.9321 7.45998C16.6659 3.85109 21.646 3.81294 21.646 7.30803C25.0293 7.45998 24.4591 2.5594 21.8742 0.773888L22.4065 0.3939C18.871 -0.0619502 15.3354 -0.0998839 11.7625 0.16586C10.0899 0.203792 8.22711 1.26745 6.32631 2.63524C3.85524 2.74926 0.662114 2.52122 0.0918541 4.76252C-0.212256 6.54797 0.205952 7.30774 1.84058 7.57372C1.42238 4.38254 6.2883 3.62277 6.36425 7.53578L16.9323 7.4597L16.9321 7.45998ZM4.04517 5.02881C2.94283 5.02881 1.99234 5.9405 1.99234 7.04232C1.99234 8.18206 2.9426 9.09375 4.04517 9.09375C5.18569 9.09375 6.09801 8.18206 6.09801 7.04232C6.09801 5.94073 5.18569 5.02881 4.04517 5.02881ZM4.04517 5.52259C3.20876 5.52259 2.48647 6.20646 2.48647 7.04208C2.48647 7.91584 3.20876 8.59971 4.04517 8.59971C4.91954 8.59971 5.60387 7.91584 5.60387 7.04208C5.60387 6.20623 4.91954 5.52259 4.04517 5.52259ZM19.251 5.02881C18.1104 5.02881 17.1981 5.9405 17.1981 7.04232C17.1981 8.18206 18.1104 9.09375 19.251 9.09375C20.3533 9.09375 21.3038 8.18206 21.3038 7.04232C21.3038 5.94073 20.3535 5.02881 19.251 5.02881ZM19.251 5.52259C18.3766 5.52259 17.6923 6.20646 17.6923 7.04208C17.6923 7.91584 18.3766 8.59971 19.251 8.59971C20.0874 8.59971 20.8097 7.91584 20.8097 7.04208C20.8097 6.20623 20.0874 5.52259 19.251 5.52259Z" fill="#101323"/>
</svg>
