<svg width="20" height="20" viewBox="0 0 20 20" fill="none" xmlns="http://www.w3.org/2000/svg">
<g clip-path="url(#clip0_563_89233)">
<path d="M0.833008 0.833252H4.16634L6.39967 11.9916C6.47588 12.3752 6.6846 12.7199 6.9893 12.9652C7.29399 13.2104 7.67526 13.3407 8.06634 13.3333H16.1663C16.5574 13.3407 16.9387 13.2104 17.2434 12.9652C17.5481 12.7199 17.7568 12.3752 17.833 11.9916L19.1663 4.99992H4.99967M8.33301 17.4999C8.33301 17.9602 7.95991 18.3333 7.49967 18.3333C7.03944 18.3333 6.66634 17.9602 6.66634 17.4999C6.66634 17.0397 7.03944 16.6666 7.49967 16.6666C7.95991 16.6666 8.33301 17.0397 8.33301 17.4999ZM17.4997 17.4999C17.4997 17.9602 17.1266 18.3333 16.6663 18.3333C16.2061 18.3333 15.833 17.9602 15.833 17.4999C15.833 17.0397 16.2061 16.6666 16.6663 16.6666C17.1266 16.6666 17.4997 17.0397 17.4997 17.4999Z" stroke="white" stroke-width="1.67" stroke-linecap="round" stroke-linejoin="round"/>
</g>
<defs>
<clipPath id="clip0_563_89233">
<rect width="20" height="20" fill="white"/>
</clipPath>
</defs>
</svg>
