<svg width="24" height="24" viewBox="0 0 24 24" fill="none" xmlns="http://www.w3.org/2000/svg">
<path d="M12.5084 6.49426C9.19855 6.49426 6.51343 9.17938 6.51343 12.4893C6.51343 15.8004 9.19855 18.4843 12.5084 18.4843C15.82 18.4843 18.5034 15.7998 18.5034 12.4893C18.5034 9.17938 15.8198 6.49426 12.5084 6.49426ZM12.5093 7.44228C12.8133 7.44228 13.06 7.68858 13.06 7.99258C13.06 8.2966 12.8133 8.54354 12.5093 8.54354C12.205 8.54354 11.959 8.2966 11.959 7.99258C11.959 7.68878 12.2053 7.44228 12.5093 7.44228ZM8.75613 11.269C8.66225 11.5582 8.35091 11.7163 8.06258 11.6224C7.77341 11.5285 7.61534 11.218 7.7088 10.929C7.80268 10.6401 8.11339 10.4816 8.40235 10.5753C8.69131 10.6691 8.85001 10.9803 8.75613 11.269V11.269ZM10.3096 16.4498C10.1311 16.6959 9.78691 16.7505 9.54104 16.5717C9.29515 16.3932 9.24037 16.0486 9.41915 15.8029C9.59813 15.557 9.9427 15.5022 10.1884 15.681C10.4345 15.8596 10.4884 16.2046 10.3097 16.4498H10.3096ZM9.51176 12.4893C9.51176 10.8343 10.8535 9.49155 12.5093 9.49155C14.1642 9.49155 15.5068 10.8345 15.5068 12.4893C15.5068 14.1444 14.1642 15.4868 12.5093 15.4868C10.8535 15.4868 9.51176 14.1448 9.51176 12.4893ZM15.4741 16.573C15.228 16.7515 14.8837 16.6972 14.7049 16.4513C14.5263 16.2054 14.5811 15.8604 14.8266 15.6821C15.0727 15.5031 15.4175 15.5585 15.5954 15.8044C15.7741 16.0501 15.7196 16.394 15.4741 16.573L15.4741 16.573ZM17.3086 10.9307C17.4021 11.2199 17.2442 11.5306 16.9549 11.6247C16.6659 11.7186 16.3548 11.5599 16.2613 11.2709C16.1672 10.9813 16.3263 10.671 16.6151 10.5776C16.9036 10.4839 17.2141 10.6418 17.3086 10.9307V10.9307Z" fill="#101323"/>
<path d="M10.7362 2.83714L10.3284 0.601968C10.2919 0.403544 10.1752 0.227906 10.005 0.117925C9.88538 0.0399365 9.74676 0 9.60709 0C9.54833 0 9.48937 0.0069002 9.43145 0.0209087C4.81916 1.15728 1.12516 4.87723 0.0198361 9.49729C-0.0265818 9.69363 0.00896375 9.90188 0.121243 10.071C0.232477 10.2396 0.407905 10.3558 0.60779 10.3903L2.84548 10.7824C2.88855 10.7899 2.93121 10.7934 2.97323 10.7934C3.30297 10.7934 3.60008 10.5699 3.68369 10.2396C4.49955 7.03067 6.99652 4.51593 10.2 3.6777C10.571 3.58068 10.8049 3.21436 10.736 2.83674L10.7362 2.83714ZM2.22327 9.30906C1.91904 9.30906 1.67296 9.06296 1.67296 8.75876C1.67296 8.45474 1.91927 8.20802 2.22327 8.20802C2.52687 8.20802 2.77336 8.45475 2.77336 8.75876C2.77315 9.06277 2.52684 9.30906 2.22327 9.30906ZM8.75407 2.76648C8.44985 2.76648 8.20376 2.52038 8.20376 2.21618C8.20376 1.91216 8.45007 1.66587 8.75407 1.66587C9.05807 1.66587 9.30481 1.91218 9.30481 2.21618C9.3046 2.5204 9.05787 2.76648 8.75407 2.76648Z" fill="#101323"/>
<path d="M12.5095 0.998746C12.0071 0.998746 11.5134 1.0345 11.0281 1.09681L11.3258 2.72959C11.4505 3.4112 11.0222 4.08323 10.3513 4.25885C7.35859 5.04146 5.02622 7.39038 4.26367 10.3877C4.11355 10.98 3.58265 11.3934 2.97213 11.3934C2.89414 11.3934 1.10682 11.0873 1.10682 11.0873C1.05079 11.5468 1.0188 12.0141 1.0188 12.4892C1.01901 18.8353 6.16283 23.9803 12.5094 23.9803C18.855 23.9803 24 18.8355 24 12.4892C24 6.14306 18.8549 0.998596 12.5094 0.998596L12.5095 0.998746ZM12.5082 19.3836C8.70677 19.3836 5.61453 16.2912 5.61453 12.4893C5.61453 8.68771 8.70736 5.59509 12.5088 5.59509C16.3104 5.5953 19.403 8.68814 19.403 12.4893C19.403 16.291 16.3102 19.3836 12.5082 19.3836Z" fill="#101323"/>
</svg>
