<svg width="24" height="22" viewBox="0 0 24 22" fill="none" xmlns="http://www.w3.org/2000/svg">
<path d="M8.57119 10.7143H10.4393L11.5718 12.7733L10.8526 14.5714H8.57119V10.7143Z" fill="#101323"/>
<path d="M12.8571 17.2254L13.5757 15.4286H14.3066L15.0453 16.906C15.1178 17.0512 15.2663 17.1429 15.4285 17.1429H16.2856V18H12.8571L12.8571 17.2254Z" fill="#101323"/>
<path d="M24 12.8571H17.1429V15.4285H24V12.8571Z" fill="#101323"/>
<path d="M3.5686 2.46025L4.69092 3.48039L3.4777 8.73786L2.44148 9.42857H2.14263V0H2.39365L3.76395 1.3703L3.47352 1.95115H3.47371C3.3878 2.12296 3.42664 2.33074 3.56861 2.4601L3.5686 2.46025Z" fill="#101323"/>
<path d="M9.64303 18.0001L8.5716 16.5715V15.4287H11.143C11.3183 15.4287 11.4759 15.322 11.541 15.1593L12.1066 13.7452L12.8127 15.0292L12.0308 16.984V16.9838C12.0105 17.0345 12.0002 17.0885 12.0002 17.143V18.0001L9.64303 18.0001Z" fill="#101323"/>
<path d="M19.7144 9.26536L20.5715 8.83679V12.0006H19.7144V9.26536Z" fill="#101323"/>
<path d="M4.53273 0.926388L3.95032 0.343971L4.05861 0.127197L6.61279 1.24472L6.36503 1.74063L4.53273 0.926388Z" fill="#101323"/>
<path d="M7.14909 2.08927L7.39915 1.58875L10.1841 2.80711L10.001 3.35681L7.14909 2.08927Z" fill="#101323"/>
<path d="M24 16.2857H17.1429V18H24V16.2857Z" fill="#101323"/>
<path d="M14.9545 14.8087C14.8819 14.6635 14.7335 14.5719 14.5712 14.5719H13.5388L8.94661 6.22231H8.9468C8.92403 6.18098 8.89457 6.14367 8.85956 6.11172L4.38537 2.04451L4.48563 1.84399L11.7038 5.05196L16.2856 12.5493V16.2859H15.6933L14.9545 14.8087Z" fill="#101323"/>
<path d="M6.50178 19.7143C6.59075 19.4638 6.75491 19.2469 6.97187 19.0934C7.18884 18.94 7.44809 18.8575 7.71382 18.8571H21.4281C21.6939 18.8575 21.9531 18.94 22.17 19.0934C22.387 19.2468 22.5512 19.4638 22.6401 19.7143H21.8567V20.5714H22.6401C22.5512 20.8219 22.387 21.0388 22.17 21.1923C21.9531 21.3457 21.6938 21.4282 21.4281 21.4286H7.71382C7.44806 21.4282 7.1888 21.3457 6.97187 21.1923C6.75491 21.0388 6.59075 20.8219 6.50178 20.5714H7.28526V19.7143H6.50178ZM20.1426 20.5714H20.9997V19.7143H20.1426V20.5714ZM18.4283 20.5714H19.2855V19.7143H18.4283V20.5714ZM16.714 20.5714H17.5712V19.7143H16.714V20.5714ZM14.9997 20.5714H15.8569V19.7143H14.9997V20.5714ZM13.2855 20.5714H14.1426V19.7143H13.2855V20.5714ZM11.5712 20.5714H12.4283V19.7143H11.5712V20.5714ZM9.85688 20.5714H10.714V19.7143H9.85688V20.5714ZM8.1426 20.5714H8.99974V19.7143H8.1426V20.5714Z" fill="#101323"/>
<path d="M1.28564 2.34705V2.99985H-6.96182e-05V2.86133L1.28564 2.34705Z" fill="#101323"/>
<path d="M1.28564 3.85718H0.428502V9.42861H1.28564V3.85718Z" fill="#101323"/>
<path d="M2.80908 10.214L6 8.08679V12.3248V12.3247C6 12.6933 5.85363 13.0467 5.59305 13.3075C5.33227 13.5681 4.97889 13.7144 4.61023 13.7144C4.24173 13.7144 3.88836 13.5681 3.6276 13.3073L2.87453 12.5542C2.79418 12.4739 2.68512 12.4287 2.57147 12.4287H0.428617V10.2859H2.57147C2.65604 10.2859 2.73889 10.2608 2.8091 10.2139L2.80908 10.214Z" fill="#101323"/>
</svg>
