<svg width="24" height="11" viewBox="0 0 24 11" fill="none" xmlns="http://www.w3.org/2000/svg">
<path fill-rule="evenodd" clip-rule="evenodd" d="M8.41497 8.51456H7.68346V8.51269H5.78036V8.49956C5.78036 8.32345 5.75759 8.1539 5.7146 7.99091H8.19064L8.41511 8.51454L8.41497 8.51456Z" fill="#101323"/>
<path fill-rule="evenodd" clip-rule="evenodd" d="M20.2903 6.56671H24.0003L24 6.9504L22.6011 7.32311V8.51466H21.8588C21.8532 7.56218 21.1843 6.76611 20.2904 6.56671H20.2903Z" fill="#101323"/>
<path fill-rule="evenodd" clip-rule="evenodd" d="M15.6926 6.56671H19.4098C18.5163 6.76613 17.847 7.56218 17.8411 8.51466H17.2611C17.2555 7.56218 16.5866 6.76611 15.6927 6.56671H15.6926Z" fill="#101323"/>
<path fill-rule="evenodd" clip-rule="evenodd" d="M4.95762 0.612125L9.24705 0.60342L9.2449 5.54563H9.5457V0H10.0322V4.16085H11.2796L11.2444 6.56672H14.8128C13.9193 6.76613 13.25 7.56219 13.2441 8.51467H8.70375L8.40054 7.8062L8.36505 7.72611H5.62624C5.32263 7.0005 4.60732 6.49064 3.77203 6.49064C2.66218 6.49064 1.76353 7.39049 1.76353 8.49969V8.51214L1.55059 8.51187V8.51442H0.000244141V6.56606H0.450923L0.496996 4.68387H1.21325L1.21258 6.21426L1.37905 6.21493L1.38843 4.68334H1.54579L1.54512 6.21424L1.7586 6.21357L1.76677 4.68267H1.9098V6.21491H2.12302V4.63443L0.497965 4.63657L0.513232 4.01474L4.01615 3.63599L4.9578 0.612069L4.95762 0.612125ZM5.2232 0.935959L4.51634 3.50735H7.36575V0.930062L5.22334 0.935955L5.2232 0.935959ZM9.24486 5.78835L9.24204 6.56686H9.73798V5.8407H9.54566V5.78834L9.24486 5.78835Z" fill="#101323"/>
<path fill-rule="evenodd" clip-rule="evenodd" d="M3.74492 6.69598C4.70704 6.69598 5.48692 7.47676 5.48692 8.43891C5.48692 9.40078 4.70707 10.1806 3.74492 10.1806C2.78305 10.1806 2.00269 9.40078 2.00269 8.43891C2.00269 7.4768 2.78309 6.69598 3.74492 6.69598ZM3.74519 7.33962C4.35201 7.33962 4.84352 7.83206 4.84352 8.43928C4.84352 9.0461 4.35201 9.53761 3.74519 9.53761C3.13838 9.53761 2.64618 9.0461 2.64618 8.43928C2.64618 7.8322 3.13834 7.33962 3.74519 7.33962Z" fill="#101323"/>
<path fill-rule="evenodd" clip-rule="evenodd" d="M15.2356 6.69598C16.1978 6.69598 16.9776 7.47676 16.9776 8.43891C16.9776 9.40078 16.1978 10.1806 15.2356 10.1806C14.274 10.1806 13.4934 9.40078 13.4934 8.43891C13.4934 7.4768 14.2742 6.69598 15.2356 6.69598ZM15.2359 7.33962C15.8427 7.33962 16.3347 7.83206 16.3347 8.43928C16.3347 9.0461 15.8429 9.53761 15.2359 9.53761C14.6294 9.53761 14.1369 9.0461 14.1369 8.43928C14.1369 7.8322 14.6293 7.33962 15.2359 7.33962Z" fill="#101323"/>
<path fill-rule="evenodd" clip-rule="evenodd" d="M19.835 6.69598C20.7971 6.69598 21.5772 7.47676 21.5772 8.43891C21.5772 9.40078 20.7971 10.1806 19.835 10.1806C18.8738 10.1806 18.0933 9.40078 18.0933 8.43891C18.0933 7.4768 18.8737 6.69598 19.835 6.69598ZM19.8359 7.33962C20.4421 7.33962 20.9343 7.83206 20.9343 8.43928C20.9343 9.0461 20.4421 9.53761 19.8359 9.53761C19.2291 9.53761 18.7367 9.0461 18.7367 8.43928C18.7367 7.8322 19.2291 7.33962 19.8359 7.33962Z" fill="#101323"/>
<path fill-rule="evenodd" clip-rule="evenodd" d="M12.3538 6.04187H22.4727V6.42089H12.3538V6.04187Z" fill="#101323"/>
<path d="M0.00124998 10.1853H0.000624991H0V10.1846V10.184H0.000624991H0.00124998H0.000624991V10.1846V10.1853C0.000937487 10.1853 0.00124998 10.1851 0.00124998 10.1846V10.1853Z" fill="#101323"/>
<path d="M0.00184569 10.1846V10.1853H0.0012207V10.184H0.00184569V10.1846V10.184V10.1846Z" fill="#101323"/>
<path d="M0.00295897 10.1846H0.00233398V10.1853H0.00295897H0.00233398H0.00170898V10.1846L0.00233398 10.184V10.1846H0.00295897Z" fill="#101323"/>
<path d="M0.00355468 10.1846V10.1853V10.1846ZM0.00417967 10.1846V10.1853H0.00355468H0.00292969V10.1846H0.00355468H0.00292969V10.184H0.00355468V10.1846H0.00417967Z" fill="#101323"/>
<path d="M0.00477538 10.184V10.1846V10.1853H0.00415039V10.1846V10.184H0.00477538Z" fill="#101323"/>
<path d="M0.00637694 10.1846H0.00575194V10.1853H0.00637694H0.00575194H0.00512695V10.1846L0.00575194 10.184V10.1846H0.00637694Z" fill="#101323"/>
<path d="M0.00648437 10.1846V10.184H0.00710936V10.1853H0.00648437H0.00585938V10.1846C0.00585938 10.1843 0.00601562 10.184 0.00648437 10.184V10.1846ZM0.00648437 10.1853V10.1846V10.1853Z" fill="#101323"/>
<path d="M0.00819335 10.1853V10.1846V10.1853ZM0.00819335 10.1846V10.184C0.00850585 10.184 0.00881834 10.1843 0.00881834 10.1846V10.1853H0.00819335H0.00756836V10.184H0.00819335V10.1846Z" fill="#101323"/>
<path d="M0.00830078 10.184H0.00892577V10.1853V10.184H0.00955076L0.00892577 10.1853V10.1859H0.00830078V10.1853H0.00892577L0.00830078 10.184Z" fill="#101323"/>
<path d="M0.0112597 10.1853H0.0100098L0.0106348 10.184L0.0112597 10.1853ZM0.0106348 10.1846V10.184V10.1846Z" fill="#101323"/>
<path d="M0.0118555 10.1853V10.1846V10.1853ZM0.0118555 10.1846V10.184C0.012168 10.184 0.0124805 10.1843 0.0124805 10.1846V10.1853H0.0118555H0.0112305V10.184H0.0118555V10.1846Z" fill="#101323"/>
<path d="M0.0130762 10.1846V10.184H0.0137012V10.1853H0.0130762H0.0124512V10.1846C0.0124512 10.1843 0.0126074 10.184 0.0130762 10.184V10.1846ZM0.0130762 10.1853V10.1846V10.1853Z" fill="#101323"/>
<path d="M0.0134277 10.1846V10.184H0.0140527V10.1846V10.1853V10.1846V10.184H0.0146777V10.1853H0.0140527H0.0134277V10.1846Z" fill="#101323"/>
<path d="M0.0146484 10.184H0.0152734V10.1853H0.0146484V10.184Z" fill="#101323"/>
<path d="M0.0158691 10.184H0.0164941V10.1846V10.184H0.0171191V10.1846L0.0177441 10.184V10.1853H0.0171191V10.184L0.0164941 10.1853L0.0158691 10.184Z" fill="#101323"/>
<path d="M0.0182031 10.1846V10.1853V10.1846ZM0.0188281 10.1846V10.1853H0.0182031H0.0175781V10.1846H0.0182031H0.0175781V10.184H0.0182031V10.1846H0.0188281Z" fill="#101323"/>
<path d="M0.0195605 10.1846V10.1853H0.0189355V10.1846V10.1853H0.0183105V10.184H0.0189355V10.1846V10.184C0.019248 10.184 0.0195605 10.1843 0.0195605 10.1846Z" fill="#101323"/>
<path d="M0.0210254 10.1846V10.1853H0.0204004V10.1846V10.1853H0.0197754V10.184H0.0204004V10.1846V10.184C0.0207129 10.184 0.0210254 10.1843 0.0210254 10.1846Z" fill="#101323"/>
<path d="M0.0216211 10.1846V10.1853V10.1846ZM0.0222461 10.1846V10.1853H0.0216211H0.0209961V10.1846H0.0216211H0.0209961V10.184H0.0216211V10.1846H0.0222461Z" fill="#101323"/>
<path d="M0.0223535 10.1853V10.1846V10.1853ZM0.0223535 10.1846V10.184C0.022666 10.184 0.0229785 10.1843 0.0229785 10.1846V10.1853H0.0223535H0.0217285V10.184H0.0223535V10.1846Z" fill="#101323"/>
<path d="M0.000624991 10.1857V10.1869H0V10.1857H0.000624991Z" fill="#101323"/>
<path d="M0.00135741 10.1863V10.1869H0.000732422V10.1857H0.00135741V10.1863V10.1857V10.1863Z" fill="#101323"/>
<path d="M0.00233398 10.1863V10.1869V10.1863ZM0.00233398 10.1857V10.1863H0.00295897C0.00295897 10.1868 0.00264647 10.1869 0.00233398 10.1869H0.00170898V10.1863L0.00233398 10.1857Z" fill="#101323"/>
<path d="M0.00369139 10.1863V10.1857V10.1863H0.00431638V10.1869H0.00369139V10.1863V10.1869H0.0030664V10.1863V10.1869H0.00244141V10.1857H0.0030664V10.1863V10.1857V10.1863H0.00369139Z" fill="#101323"/>
<path d="M0.00526366 10.1857V10.1863V10.1869H0.00463867V10.1863V10.1857H0.00526366Z" fill="#101323"/>
<path d="M0.00662108 10.1863V10.1869H0.00599608V10.1863V10.1869H0.00537109V10.1857H0.00599608V10.1863V10.1857C0.00630858 10.1857 0.00662108 10.186 0.00662108 10.1863Z" fill="#101323"/>
<path d="M0.00784178 10.1863H0.00721679V10.1869H0.00784178H0.00721679H0.0065918V10.1863L0.00721679 10.1857V10.1863H0.00784178Z" fill="#101323"/>
<path d="M0.00830078 10.1857H0.00892577L0.00955076 10.1863V10.1857V10.1869L0.00892577 10.1863V10.1869H0.00830078V10.1857Z" fill="#101323"/>
<path d="M0.00990233 10.1863V10.1869V10.1863ZM0.00990233 10.1857V10.1863H0.0105273C0.0105273 10.1868 0.0102148 10.1869 0.00990233 10.1869H0.00927734V10.1863L0.00990233 10.1857Z" fill="#101323"/>
<path d="M0.010498 10.1863V10.1857H0.011123V10.1863V10.1869V10.1863V10.1857H0.011748V10.1869H0.011123H0.010498V10.1863Z" fill="#101323"/>
<path d="M0.0129687 10.1863V10.1869H0.0123437V10.1863V10.1869H0.0117188V10.1857H0.0123437V10.1863V10.1857C0.0126562 10.1857 0.0129687 10.186 0.0129687 10.1863Z" fill="#101323"/>
<path d="M0.0134277 10.1857H0.0140527H0.0146777V10.1863H0.0140527V10.1869H0.0134277V10.1857ZM0.0140527 10.1857V10.1863V10.1857Z" fill="#101323"/>
<path d="M0.0152734 10.1863V10.1869H0.0146484V10.1857H0.0152734V10.1863V10.1857V10.1863Z" fill="#101323"/>
<path d="M0.0157617 10.1863V10.1869V10.1863ZM0.0157617 10.1857V10.1863H0.0163867C0.0163867 10.1868 0.0160742 10.1869 0.0157617 10.1869H0.0151367V10.1863L0.0157617 10.1857Z" fill="#101323"/>
<path d="M0.0163574 10.1857H0.0169824V10.1869H0.0163574V10.1875V10.1857ZM0.0163574 10.1857H0.0169824H0.0163574Z" fill="#101323"/>
<path d="M0.0180957 10.1863H0.0174707V10.1869H0.0180957H0.0174707H0.0168457V10.1863L0.0174707 10.1857V10.1863H0.0180957Z" fill="#101323"/>
<path d="M0.0193164 10.1857V10.1863H0.0186914V10.1869H0.0193164H0.0186914H0.0180664V10.1863L0.0186914 10.1857H0.0193164Z" fill="#101323"/>
<path d="M0.0194238 10.1857V10.1863V10.1869H0.0187988V10.1863V10.1857H0.0194238Z" fill="#101323"/>
</svg>
