<svg width="20" height="20" viewBox="0 0 20 20" fill="none" xmlns="http://www.w3.org/2000/svg">
<path fill-rule="evenodd" clip-rule="evenodd" d="M9.99996 5C8.15901 5 6.66663 6.49238 6.66663 8.33333C6.66663 10.1743 8.15901 11.6667 9.99996 11.6667C11.8409 11.6667 13.3333 10.1743 13.3333 8.33333C13.3333 6.49238 11.8409 5 9.99996 5ZM8.33329 8.33333C8.33329 7.41286 9.07948 6.66667 9.99996 6.66667C10.9204 6.66667 11.6666 7.41286 11.6666 8.33333C11.6666 9.25381 10.9204 10 9.99996 10C9.07948 10 8.33329 9.25381 8.33329 8.33333Z" fill="#FEC80B"/>
<path fill-rule="evenodd" clip-rule="evenodd" d="M9.99996 0C5.41534 0 1.66663 3.63879 1.66663 8.16667C1.66663 11.2223 3.49687 14.1658 5.3052 16.272C6.22352 17.3416 7.17103 18.2359 7.9518 18.8687C8.34111 19.1843 8.70001 19.4438 9.00193 19.6295C9.15194 19.7217 9.30146 19.8041 9.44279 19.8663C9.55735 19.9167 9.76558 20 9.99996 20C10.2343 20 10.4426 19.9167 10.5571 19.8663C10.6985 19.8041 10.848 19.7217 10.998 19.6295C11.2999 19.4438 11.6588 19.1843 12.0481 18.8687C12.8289 18.2359 13.7764 17.3416 14.6947 16.272C16.503 14.1658 18.3333 11.2223 18.3333 8.16667C18.3333 3.63879 14.5846 0 9.99996 0ZM3.33329 8.16667C3.33329 4.59437 6.30031 1.66667 9.99996 1.66667C13.6996 1.66667 16.6666 4.59437 16.6666 8.16667C16.6666 10.611 15.1635 13.1675 13.4302 15.1863C12.5777 16.1792 11.7023 17.0037 10.9987 17.574C10.6458 17.86 10.3471 18.0731 10.125 18.2097C10.0774 18.239 10.0358 18.2632 9.99996 18.283C9.96413 18.2632 9.92249 18.239 9.87494 18.2097C9.65277 18.0731 9.35412 17.86 9.00125 17.574C8.29764 17.0037 7.42223 16.1792 6.56972 15.1863C4.83638 13.1675 3.33329 10.611 3.33329 8.16667Z" fill="#FEC80B"/>
</svg>
