<svg width="77" height="24" viewBox="0 0 77 24" fill="none" xmlns="http://www.w3.org/2000/svg">
<path d="M4.51136 0.227272V23.5H0.295455V0.227272H4.51136ZM9.0767 0.227272H14.2358L21.1449 17.0909H21.4176L28.3267 0.227272H33.4858V23.5H29.4403V7.51136H29.2244L22.7926 23.4318H19.7699L13.3381 7.47727H13.1222V23.5H9.0767V0.227272ZM38.0767 23.5V0.227272H46.804C48.5919 0.227272 50.0919 0.560605 51.304 1.22727C52.5237 1.89394 53.4441 2.81061 54.0653 3.97727C54.6941 5.13636 55.0085 6.45454 55.0085 7.93182C55.0085 9.42424 54.6941 10.75 54.0653 11.9091C53.4366 13.0682 52.5085 13.9811 51.2812 14.6477C50.054 15.3068 48.5426 15.6364 46.7472 15.6364H40.9631V12.1705H46.179C47.2244 12.1705 48.0805 11.9886 48.7472 11.625C49.4138 11.2614 49.9063 10.7614 50.2244 10.125C50.5502 9.48864 50.7131 8.75758 50.7131 7.93182C50.7131 7.10606 50.5502 6.37879 50.2244 5.75C49.9063 5.12121 49.41 4.63258 48.7358 4.28409C48.0691 3.92803 47.2093 3.75 46.1562 3.75H42.2926V23.5H38.0767ZM57.6477 3.76136V0.227272H76.2159V3.76136H69.0227V23.5H64.8409V3.76136H57.6477Z" fill="#101828"/>
</svg>
